<svg width="16" height="16" viewBox="0 0 16 16" fill="none" xmlns="http://www.w3.org/2000/svg">
<path d="M7.99992 9.66667C9.10659 9.66667 9.99992 8.77334 9.99992 7.66667V3.66667C9.99992 2.56001 9.10659 1.66667 7.99992 1.66667C6.89325 1.66667 5.99992 2.56001 5.99992 3.66667V7.66667C5.99992 8.77334 6.89325 9.66667 7.99992 9.66667Z" fill="white"/>
<path d="M11.3333 7.66667C11.3333 9.50667 9.83992 11 7.99992 11C6.15992 11 4.66659 9.50667 4.66659 7.66667H3.33325C3.33325 10.02 5.07325 11.9533 7.33325 12.28V14.3333H8.66659V12.28C10.9266 11.9533 12.6666 10.02 12.6666 7.66667H11.3333Z" fill="white"/>
</svg>
