<svg width="85" height="85" viewBox="0 0 85 85" fill="none" xmlns="http://www.w3.org/2000/svg">
<circle cx="42.49" cy="42.5312" r="39" fill="#3475E1" stroke="#E3ECFB" stroke-width="6"/>
<path d="M42.4901 45.8646C44.7034 45.8646 46.4901 44.0779 46.4901 41.8646V33.8646C46.4901 31.6512 44.7034 29.8646 42.4901 29.8646C40.2767 29.8646 38.4901 31.6512 38.4901 33.8646V41.8646C38.4901 44.0779 40.2767 45.8646 42.4901 45.8646Z" fill="white"/>
<path d="M49.1567 41.8646C49.1567 45.5446 46.1701 48.5312 42.4901 48.5312C38.8101 48.5312 35.8234 45.5446 35.8234 41.8646H33.1567C33.1567 46.5712 36.6367 50.4379 41.1567 51.0912V55.1979H43.8234V51.0912C48.3434 50.4379 51.8234 46.5712 51.8234 41.8646H49.1567Z" fill="white"/>
</svg>
